<?xml version="1.0" encoding="utf-8"?>
<!-- Generator: Adobe Illustrator 25.3.1, SVG Export Plug-In . SVG Version: 6.00 Build 0)  -->
<svg version="1.1" id="Layer_1" xmlns="http://www.w3.org/2000/svg" xmlns:xlink="http://www.w3.org/1999/xlink" x="0px" y="0px"
	 viewBox="0 0 281 452" style="enable-background:new 0 0 281 452;" xml:space="preserve">
<style type="text/css">
	.st0{fill:#FFFFFF;}
</style>
<g>
	<path class="st0" d="M165.2,387.3c0,12.6,1.1,22.6,3.4,29.9c2.2,7.3,5.3,12.9,9.2,16.8c3.9,3.9,8.6,6.6,14.3,8.2
		c5.7,1.6,12,2.9,18.9,3.7H70c6.9-0.8,13.2-2,18.9-3.7c5.7-1.6,10.5-4.4,14.3-8.2c3.9-3.9,6.9-9.5,9.2-16.8
		c2.2-7.3,3.4-17.3,3.4-29.9V125.4c0-10.2-0.3-18.3-0.9-24.4c-0.6-6.1-2.1-10.9-4.6-14.3c-2.4-3.5-5.9-5.7-10.4-6.7
		c-4.5-1-10.6-1.5-18.3-1.5l83.6-69.6V387.3z"/>
</g>
</svg>
