<svg id="Layer_1" data-name="Layer 1" xmlns="http://www.w3.org/2000/svg" viewBox="0 0 281 452"><defs><style>.cls-1{fill:#fff;}</style></defs><path class="cls-1" d="M258.85,445.8l-252.21.61q-4.93-26.51,8-51.18t35.46-50q22.5-25.27,49.64-51.8a636.08,636.08,0,0,0,51.18-56.42,327.26,327.26,0,0,0,40.39-64.13Q207.67,138.7,207.67,98q0-43.15-21.58-62.9t-50-19.73q-20.35,0-41,9.25A104.19,104.19,0,0,0,59.06,51.44Q43.64,69,36.24,93.69t-1.85,55.49L15.27,60.39Q33.78,35.1,67.38,21.84a189.17,189.17,0,0,1,70-13.25,172.41,172.41,0,0,1,46.25,6.16A114.88,114.88,0,0,1,223.4,34.49a100.26,100.26,0,0,1,28,33.91q10.49,20.35,10.49,49.33,0,40.71-16,72.77a232.54,232.54,0,0,1-40.69,57.66,375.31,375.31,0,0,1-54,46.25Q122,315.08,94.82,333T47,367.17q-20.67,16.35-27.44,33.61H202.74q18.49,0,30.52-5.24A55.92,55.92,0,0,0,253,381.67a69.73,69.73,0,0,0,12.33-19.74q4.62-11.1,8.32-22.81Z"/></svg>