<?xml version="1.0" encoding="utf-8"?>
<!-- Generator: Adobe Illustrator 25.3.1, SVG Export Plug-In . SVG Version: 6.00 Build 0)  -->
<svg version="1.1" id="Layer_1" xmlns="http://www.w3.org/2000/svg" xmlns:xlink="http://www.w3.org/1999/xlink" x="0px" y="0px"
	 viewBox="0 0 281 452" style="enable-background:new 0 0 281 452;" xml:space="preserve">
<style type="text/css">
	.st0{fill:#FFFFFF;}
</style>
<g>
	<path class="st0" d="M274.3,319.1c0,20.1-4.1,38.1-12.4,53.9c-8.3,15.8-19.2,29.1-32.9,40c-13.6,10.9-29,19.2-46.2,24.9
		c-17.2,5.7-34.4,8.6-51.8,8.6c-14.2,0-28.2-2-42-5.9c-13.8-3.9-26.4-10-37.6-18.1c-11.3-8.1-20.8-18.5-28.7-31.1
		c-7.9-12.6-13.2-27.6-16-45l4.7-1.8c6.7,30,20.2,52.4,40.6,67.2c20.3,14.8,42.1,22.2,65.4,22.2c13,0,25.9-2.5,38.5-7.4
		c12.6-4.9,23.9-12.2,33.8-21.9c9.9-9.7,17.8-21.8,23.7-36.4c5.9-14.6,8.9-31.6,8.9-50.9c0-13.8-2.1-26.7-6.2-38.8
		c-4.1-12-10.7-22.5-19.5-31.4c-8.9-8.9-20.4-16-34.6-21.3c-14.2-5.3-31.2-8.6-50.9-9.8v-5.3c34.7-5.5,59.6-18.6,74.6-39.1
		c15-20.5,22.5-48.8,22.5-84.7c0-11-2.1-21.1-6.2-30.2c-4.1-9.1-9.6-16.8-16.3-23.1c-6.7-6.3-14.5-11.2-23.4-14.5
		c-8.9-3.3-17.9-5-26.9-5c-9.9,0-19.5,2.1-29,6.2c-9.5,4.1-17.9,10.5-25.2,19c-7.3,8.5-13.2,19.5-17.8,32.9
		c-4.5,13.4-6.8,29.6-6.8,48.6h-0.6L41,49c8.7-12.6,22.1-22.5,40.3-29.6C99.4,12.3,119,8.8,139.9,8.8c14.2,0,28.3,1.9,42.3,5.6
		c14,3.8,26.4,9.5,37.3,17.2c10.9,7.7,19.6,17.6,26.4,29.6c6.7,12,9.9,26.6,9.5,43.5c-0.8,28.8-10.8,52.6-29.9,71.4
		c-19.2,18.8-48.7,30.9-88.5,36.4c43.8,0.8,77.7,10.1,101.6,27.8C262.4,258.1,274.3,284.4,274.3,319.1z"/>
</g>
</svg>
