<?xml version="1.0" encoding="utf-8"?>
<!-- Generator: Adobe Illustrator 25.3.1, SVG Export Plug-In . SVG Version: 6.00 Build 0)  -->
<svg version="1.1" id="Layer_1" xmlns="http://www.w3.org/2000/svg" xmlns:xlink="http://www.w3.org/1999/xlink" x="0px" y="0px"
	 viewBox="0 0 281 452" style="enable-background:new 0 0 281 452;" xml:space="preserve">
<style type="text/css">
	.st0{fill:#FFFFFF;}
</style>
<g>
	<path class="st0" d="M234.6,376.7c0,11.8,1,21.2,3.1,28c2.1,6.9,5,12.2,8.6,16c3.6,3.8,8.1,6.5,13.4,8c5.3,1.5,11.1,2.7,17.2,3.4
		h-131c6.5-0.8,12.4-1.9,17.7-3.4c5.3-1.5,9.8-4.2,13.4-8c3.6-3.8,6.5-9.2,8.6-16c2.1-6.9,3.1-16.2,3.1-28v-26.9H4.1
		c17.5-12.2,34.1-30.2,49.8-54.1C69.5,271.9,83.2,245,95,215c11.8-29.9,21.3-61.7,28.3-95.3c7.1-33.6,10.6-66,10.6-97.3h53.8
		c-3.8,24-10.7,49.3-20.6,75.8c-9.9,26.5-21.3,52.5-34,78.1c-12.8,25.6-26.3,49.7-40.6,72.4c-14.3,22.7-27.9,42.2-40.9,58.6h137.3
		V126.7l45.8-39.5V304c11.8-3,21.1-7.8,27.7-14.3c6.7-6.5,11.5-14.9,14.6-25.2l-9.7,85.2h-32.6V376.7z"/>
</g>
</svg>
