<?xml version="1.0" encoding="utf-8"?>
<!-- Generator: Adobe Illustrator 25.3.1, SVG Export Plug-In . SVG Version: 6.00 Build 0)  -->
<svg version="1.1" id="Layer_1" xmlns="http://www.w3.org/2000/svg" xmlns:xlink="http://www.w3.org/1999/xlink" x="0px" y="0px"
	 viewBox="0 0 281 452" style="enable-background:new 0 0 281 452;" xml:space="preserve">
<style type="text/css">
	.st0{fill:#FFFFFF;}
</style>
<g>
	<path class="st0" d="M269.5,297.5c0,23.2-3.9,43.8-11.6,62c-7.7,18.2-18.1,33.6-31.2,46c-13.1,12.5-27.8,22.1-44.1,28.7
		c-16.4,6.6-33,9.9-49.9,9.9c-13.2,0-26.2-2.1-38.9-6.3c-12.7-4.2-24.5-10.6-35.3-19c-10.8-8.5-20.4-19.3-28.7-32.5
		c-8.3-13.2-14.4-28.9-18.5-46.9l5.5-1.7c3.3,15.1,8.6,28.5,16,40.3c7.4,11.8,15.8,21.8,25.4,30.1c9.6,8.3,19.9,14.5,31.2,18.8
		c11.2,4.2,22.5,6.3,33.9,6.3c12.1,0,23.9-2.6,35.3-7.7c11.4-5.1,21.5-13.1,30.3-24c8.8-10.8,15.9-24.6,21.2-41.4
		c5.3-16.7,8-36.7,8-59.8c0-19.5-2.6-36.5-7.7-51c-5.2-14.5-11.9-26.6-20.1-36.1c-8.3-9.6-17.8-16.7-28.7-21.5
		c-10.8-4.8-22-7.2-33.4-7.2c-19.1,0-37.3,6.7-54.6,20.1C56.5,218,44.4,238,37.4,264.4H33L52.3,49.4h125.2
		c22.8,0,39.7-3.4,50.7-10.2c11-6.8,18.8-17.2,23.2-31.2L242,89.6L54.5,90.2l-14.9,155c10.3-25,25-43.2,44.1-54.6
		c19.1-11.4,39.3-17.1,60.7-17.1c15.4,0,30.7,2.9,45.8,8.5c15.1,5.7,28.5,13.9,40.3,24.5c11.8,10.7,21.2,23.6,28.4,38.9
		C266,260.7,269.5,278.1,269.5,297.5z"/>
</g>
</svg>
