<svg xmlns="http://www.w3.org/2000/svg" width="60.173" height="35.378" viewBox="0 0 60.173 35.378">
  <g id="Group_12" data-name="Group 12" transform="translate(2134.701 -1445.614)">
    <path id="Line_1" data-name="Line 1" d="M58.173,1H0A1,1,0,0,1-1,0,1,1,0,0,1,0-1H58.173a1,1,0,0,1,1,1A1,1,0,0,1,58.173,1Z" transform="translate(-2133.701 1463.303)" fill="#fff"/>
    <path id="Line_2" data-name="Line 2" d="M19.549,17.689a1,1,0,0,1-.649-.239L-.649.761A1,1,0,0,1-.761-.649,1,1,0,0,1,.649-.761L20.2,15.928a1,1,0,0,1-.65,1.761Z" transform="translate(-2095.078 1446.614)" fill="#fff"/>
    <path id="Line_3" data-name="Line 3" d="M16.689,20.55a1,1,0,0,1-.761-.351L-.761.649A1,1,0,0,1-.649-.761a1,1,0,0,1,1.41.111L17.45,18.9a1,1,0,0,1-.76,1.649Z" transform="translate(-2075.528 1463.303) rotate(90)" fill="#fff"/>
  </g>
</svg>
