<svg xmlns="http://www.w3.org/2000/svg" viewBox="0 0 132 132"><defs><style>.cls-1{fill:none;}.cls-2{fill:#fff;}</style></defs><g id="Layer_2" data-name="Layer 2"><g id="Layer_1-2" data-name="Layer 1"><g id="Ellipse_8" data-name="Ellipse 8"><circle class="cls-1" cx="66" cy="66" r="66"/><path class="cls-2" d="M66,132a66,66,0,1,1,66-66A66.08,66.08,0,0,1,66,132ZM66,4a62,62,0,1,0,62,62A62.07,62.07,0,0,0,66,4Z"/></g><polygon class="cls-2" points="87.98 88.15 67.48 65.75 87.96 43.87 85.04 41.13 64.77 62.79 44.98 41.15 42.02 43.85 62.03 65.72 41.04 88.13 43.96 90.87 64.74 68.67 85.02 90.85 87.98 88.15"/></g></g></svg>