<svg xmlns="http://www.w3.org/2000/svg" xmlns:xlink="http://www.w3.org/1999/xlink" width="757.1" height="353" viewBox="0 0 757.1 353">
  <defs>
    <clipPath id="clip-path">
      <path id="Path_3" data-name="Path 3" d="M0,1.748H80.553V-6.161H0Z" transform="translate(0 6.161)" fill="none"/>
    </clipPath>
    <clipPath id="clip-path-2">
      <path id="Path_3-2" data-name="Path 3" d="M0,7.909H80.553V0H0Z" fill="none"/>
    </clipPath>
  </defs>
  <g id="Group_10" data-name="Group 10" transform="translate(1452 -1192.464)">
    <g id="Group_8" data-name="Group 8" transform="translate(-1450.863 1192.464)">
      <text id="L" transform="translate(0 285)" fill="#c72026" font-size="229" font-family="AmbroiseStdFrancois-Bold, Ambroise Std Francois" font-weight="700" letter-spacing="-0.022em"><tspan x="0" y="0">L</tspan></text>
      <text id="I" transform="translate(76.845 287)" fill="#c72026" font-size="230" font-family="AmbroiseStdFrancois-Bold, Ambroise Std Francois" font-weight="700" letter-spacing="-0.022em"><tspan x="0" y="0">I</tspan></text>
      <text id="BE" transform="translate(124.735 287)" fill="#c72026" font-size="230" font-family="AmbroiseStdFrancois-Bold, Ambroise Std Francois" font-weight="700" letter-spacing="-0.022em"><tspan x="0" y="0">BE</tspan></text>
      <text id="R" transform="translate(286.554 285)" fill="#c72026" font-size="229" font-family="AmbroiseStdFrancois-Bold, Ambroise Std Francois" font-weight="700" letter-spacing="-0.022em"><tspan x="0" y="0">R</tspan></text>
      <text id="A" transform="translate(367.578 287)" fill="#c72026" font-size="230" font-family="AmbroiseStdFrancois-Bold, Ambroise Std Francois" font-weight="700" letter-spacing="-0.022em"><tspan x="0" y="0">A</tspan></text>
      <text id="T" transform="translate(438.328 287)" fill="#c72026" font-size="230" font-family="AmbroiseStdFrancois-Bold, Ambroise Std Francois" font-weight="700" letter-spacing="-0.022em"><tspan x="0" y="0">T</tspan></text>
      <text id="I-2" data-name="I" transform="translate(530.644 287)" fill="#c72026" font-size="230" font-family="AmbroiseStdFrancois-Bold, Ambroise Std Francois" font-weight="700" letter-spacing="-0.022em"><tspan x="0" y="0">I</tspan></text>
      <text id="ON" transform="translate(576.963 287)" fill="#c72026" font-size="230" font-family="AmbroiseStdFrancois-Bold, Ambroise Std Francois" font-weight="700" letter-spacing="-0.022em"><tspan x="0" y="0">ON</tspan></text>
    </g>
    <g id="Group_9" data-name="Group 9" transform="translate(-1452 1238.211)">
      <g id="Group_1" data-name="Group 1" transform="translate(96.279)">
        <text id="CANAD" transform="translate(0 53)" fill="#080909" font-size="58" font-family="ProximaNovaExCn-Extrabld, Proxima Nova Extra Condensed" letter-spacing="-0.017em"><tspan x="0" y="0">CANAD</tspan></text>
        <text id="A-2" data-name="A" transform="translate(134.32 52)" fill="#080909" font-size="57" font-family="ProximaNovaExCn-Extrabld, Proxima Nova Extra Condensed" letter-spacing="-0.017em"><tspan x="0" y="0">A</tspan></text>
        <text id="_AND" data-name=" AND" transform="translate(160.653 53)" fill="#080909" font-size="58" font-family="ProximaNovaExCn-Extrabld, Proxima Nova Extra Condensed" letter-spacing="-0.017em"><tspan x="0" y="0" xml:space="preserve"> AND</tspan></text>
        <text id="_T" data-name=" T" transform="translate(253.007 52)" fill="#080909" font-size="57" font-family="ProximaNovaExCn-Extrabld, Proxima Nova Extra Condensed" letter-spacing="-0.017em"><tspan x="0" y="0" xml:space="preserve"> T</tspan></text>
        <text id="HE" transform="translate(282.583 53)" fill="#080909" font-size="58" font-family="ProximaNovaExCn-Extrabld, Proxima Nova Extra Condensed" letter-spacing="-0.017em"><tspan x="0" y="0">HE</tspan></text>
        <text id="_GR" data-name=" GR" transform="translate(334.193 53)" fill="#080909" font-size="58" font-family="ProximaNovaExCn-Extrabld, Proxima Nova Extra Condensed" letter-spacing="-0.017em"><tspan x="0" y="0" xml:space="preserve"> GR</tspan></text>
        <text id="E" transform="translate(396.869 53)" fill="#080909" font-size="58" font-family="ProximaNovaExCn-Extrabld, Proxima Nova Extra Condensed" letter-spacing="-0.017em"><tspan x="0" y="0">E</tspan></text>
        <text id="A-3" data-name="A" transform="translate(419.637 52)" fill="#080909" font-size="57" font-family="ProximaNovaExCn-Extrabld, Proxima Nova Extra Condensed" letter-spacing="-0.017em"><tspan x="0" y="0">A</tspan></text>
        <text id="T-2" data-name="T" transform="translate(443.372 53)" fill="#080909" font-size="58" font-family="ProximaNovaExCn-Extrabld, Proxima Nova Extra Condensed" letter-spacing="-0.017em"><tspan x="0" y="0">T</tspan></text>
        <text id="_W" data-name=" W" transform="translate(465.613 53)" fill="#080909" font-size="58" font-family="ProximaNovaExCn-Extrabld, Proxima Nova Extra Condensed" letter-spacing="-0.017em"><tspan x="0" y="0" xml:space="preserve"> W</tspan></text>
        <text id="AR" transform="translate(510.218 53)" fill="#080909" font-size="58" font-family="ProximaNovaExCn-Extrabld, Proxima Nova Extra Condensed" letter-spacing="-0.017em"><tspan x="0" y="0">AR</tspan></text>
      </g>
      <g id="Group_6" data-name="Group 6" transform="translate(0 31.989)">
        <g id="Group_5" data-name="Group 5" transform="translate(0 0)" clip-path="url(#clip-path)">
          <g id="Group_3" data-name="Group 3" transform="translate(-0.001)">
            <path id="Path_1" data-name="Path 1" d="M.874,1.748A3.955,3.955,0,0,1-3.081-2.207,3.955,3.955,0,0,1,.874-6.161,3.955,3.955,0,0,1,4.829-2.207,3.955,3.955,0,0,1,.874,1.748" transform="translate(3.081 6.161)" fill="#080909"/>
          </g>
          <g id="Group_4" data-name="Group 4" transform="translate(7.909 3.954)">
            <path id="Path_2" data-name="Path 2" d="M16.055,0H-56.589" transform="translate(56.589)" fill="none" stroke="#2b2e34" stroke-width="0.5"/>
          </g>
        </g>
      </g>
      <g id="Group_7" data-name="Group 7" transform="translate(756.692 39.899) rotate(180)">
        <g id="Group_5-2" data-name="Group 5" transform="translate(0 0)" clip-path="url(#clip-path-2)">
          <g id="Group_3-2" data-name="Group 3" transform="translate(-0.001)">
            <path id="Path_1-2" data-name="Path 1" d="M3.955,7.909A3.954,3.954,0,1,1,7.91,3.954,3.955,3.955,0,0,1,3.955,7.909" fill="#080909"/>
          </g>
          <g id="Group_4-2" data-name="Group 4" transform="translate(7.909 3.954)">
            <path id="Path_2-2" data-name="Path 2" d="M72.644,0H0" fill="none" stroke="#2b2e34" stroke-width="0.5"/>
          </g>
        </g>
      </g>
    </g>
  </g>
</svg>
