<svg xmlns="http://www.w3.org/2000/svg" xmlns:xlink="http://www.w3.org/1999/xlink" viewBox="0 0 756.69 230.34"><defs><style>.cls-1{fill:none;}.cls-2{isolation:isolate;}.cls-3{fill:#c72026;}.cls-4{fill:#080909;}.cls-5{clip-path:url(#clip-path);}.cls-6{fill:#2b2e34;}.cls-7{clip-path:url(#clip-path-2);}</style><clipPath id="clip-path" transform="translate(0)"><rect class="cls-1" y="18.31" width="80.55" height="7.91"/></clipPath><clipPath id="clip-path-2" transform="translate(0)"><rect class="cls-1" x="676.14" y="18.31" width="80.55" height="7.91"/></clipPath></defs><g id="Layer_2" data-name="Layer 2"><g id="Layer_1-2" data-name="Layer 1"><g id="L" class="cls-2"><g class="cls-2"><path class="cls-3" d="M74.65,162.83V224c0,1.38-.46,1.61-1.38,1.61H6.86c-1.37,0-1.83-.46-1.83-1.15s.46-1.37,1.83-1.37h5c1.83,0,2.06-1.84,2.06-8.48V74.89c0-6.87-.23-8.47-2.06-8.47h-5C5.49,66.42,5,65.73,5,65s.46-1.14,1.83-1.14H46.94c1.37,0,1.83.46,1.83,1.14s-.46,1.38-1.83,1.38H39.61c-2.06,0-2.29,4.12-2.29,10.76V221.91c0,.46.23,1.15,1.37,1.15h2.75c25.65,0,30.23-33.44,30.23-50.84v-9.39c0-1.37.69-1.83,1.6-1.83C74,161,74.65,161.46,74.65,162.83Z" transform="translate(0)"/></g></g><g id="I" class="cls-2"><g class="cls-2"><path class="cls-3" d="M121.45,227.58H83.73c-1.38,0-1.84-.46-1.84-1.15s.46-1.38,1.84-1.38h5.06c1.84,0,2.07-1.84,2.07-8.51V76.24c0-6.67-.23-8.51-2.07-8.51H83.73c-1.38,0-1.84-.69-1.84-1.38s.46-1.15,1.84-1.15h37.72c1.38,0,1.84.46,1.84,1.15s-.46,1.38-1.84,1.38h-4.83c-2.07,0-2.3,1.84-2.3,8.51v140.3c0,6.67.23,8.51,2.3,8.51h4.83c1.38,0,1.84.69,1.84,1.38S122.83,227.58,121.45,227.58Z" transform="translate(0)"/></g></g><path class="cls-3" d="M173,227.58h-41.4c-1.38,0-1.84-.46-1.84-1.15s.46-1.38,1.84-1.38h5.06c1.84,0,2.07-1.84,2.07-8.51V76.24c0-6.67-.23-8.51-2.07-8.51h-5.06c-1.38,0-1.84-.69-1.84-1.38s.46-1.15,1.84-1.15H172.1c18.17,0,32.2,12.19,32.2,39.33,0,18.63-11.73,36.11-28.06,37.72v.23c17.71,0,32,15.41,32,42.09C208.21,211.94,193.26,227.58,173,227.58ZM169.11,67.73h-5.06c-1.38,0-1.84.69-1.84,1.61v70.38c0,.92.23,1.61,1.61,1.61h4.83c12.19,0,13.34-12.42,13.34-36.34C182,83.6,179.92,67.73,169.11,67.73Zm-.23,75.9h-4.83c-1.38,0-1.84.69-1.84,1.38v78.43c0,.92.23,1.61,1.61,1.61h5.06c11.5,0,13.57-11.73,13.57-40.71C182.45,157.43,179.23,143.63,168.88,143.63Z" transform="translate(0)"/><path class="cls-3" d="M283.19,171.92V226c0,1.38-.69,1.61-1.38,1.61H214.42c-1.38,0-1.84-.46-1.84-1.15s.46-1.38,1.84-1.38h5.06c1.84,0,2.07-1.84,2.07-8.51V76.24c0-6.67-.23-8.51-2.07-8.51h-5.06c-1.38,0-1.84-.69-1.84-1.38s.46-1.15,1.84-1.15h61.41c.92,0,1.38.23,1.38,1.61v52.44c0,1.15-.69,1.61-1.38,1.61s-1.38-.46-1.38-1.61v-5.06c0-19.32-6-46.46-24.38-46.46h-3.45c-1.15,0-1.61.69-1.61,1.38v71.3c0,.46.23.92,1.38.92h.69c6.44,0,12.88-10.81,12.88-24.61v-2.3c0-1.38.46-1.84,1.38-1.84.69,0,1.38.46,1.38,1.84v56.35c0,1.38-.69,1.84-1.61,1.84-.69,0-1.15-.69-1.15-1.84v-2.3c0-13.8-6.44-24.61-12.88-24.61h-.46c-1.15,0-1.61.46-1.61,1.15V223.9c0,.46.23,1.15,1.38,1.15h2.76c27.6,0,31-38.87,31-48.3v-4.83a1.45,1.45,0,0,1,1.61-1.61C282.5,170.31,283.19,170.77,283.19,171.92Z" transform="translate(0)"/><g id="R" class="cls-2"><g class="cls-2"><path class="cls-3" d="M345.4,202c0-11.91.23-22.21.23-34.35C345.4,145.88,339,142,329.6,142h-3.67c-1.6,0-2.06.69-2.06,1.6v71c0,6.64.23,8.48,2.29,8.48H331c1.38,0,1.83.68,1.83,1.37s-.45,1.15-1.83,1.15H293.42c-1.38,0-1.84-.46-1.84-1.15s.46-1.37,1.84-1.37h5c1.84,0,2.07-1.84,2.07-8.48V74.89c0-6.64-.23-8.47-2.07-8.47h-5c-1.38,0-1.84-.69-1.84-1.38s.46-1.14,1.84-1.14h40.3c18.09,0,32.06,12.37,32.06,39.16,0,18.55-11.68,35.95-27.94,37.56v.22c17.87,2.29,30.23,12.83,30.23,43.74v28.17c0,6,.46,11.22,4.58,11.22,3.67,0,5.27-4.58,5.5-8.7,0-.91,0-2.29,1.37-2.29,1.6,0,1.6,1.38,1.6,2.52-.68,7.56-5,12.82-14.42,12.82C353.64,228.32,345.4,217.1,345.4,202ZM330.74,66.42h-5c-1.38,0-1.84.69-1.84,1.6V138.1c0,.91.23,1.6,1.61,1.6h4.81c12.13,0,13.28-12.6,13.28-36.18C343.57,82.22,341.51,66.42,330.74,66.42Z" transform="translate(0)"/></g></g><g id="A" class="cls-2"><g class="cls-2"><path class="cls-3" d="M450.36,227.58H415.17c-1.38,0-1.84-.46-1.84-1.15s.46-1.38,1.84-1.38h3.68c2.3,0,3-.92,1.61-9l-7.36-46.46c-.23-1.15-.46-1.38-1.38-1.38H391.48c-.69,0-1.15.23-1.38,1.38l-1.84,12.65c-3.91,29.21-1.61,42.78,7.36,42.78h1.61c1.38,0,1.84.69,1.84,1.38s-.46,1.15-1.84,1.15H371c-1.38,0-1.84-.46-1.84-1.15s.46-1.38,1.84-1.38h.46c5.75,0,8-5.52,13.8-43.7l17-116.61c.23-1.15.69-1.38,1.61-1.38h12.42c.92,0,1.15.23,1.38,1.38l26.91,151.34c1.15,7.82,1.84,9,4.37,9h1.38c1.38,0,1.84.69,1.84,1.38S451.74,227.58,450.36,227.58ZM401.14,95.1h-.46l-9.89,69.46c-.23,1.15.23,1.38,1.15,1.38H410.8c.92,0,1.61-.46,1.38-1.84Z" transform="translate(0)"/></g></g><g id="T" class="cls-2"><g class="cls-2"><path class="cls-3" d="M504.55,227.58H466.6c-1.14,0-1.61-.46-1.61-1.15s.47-1.38,1.61-1.38h5.29c1.84,0,2.07-1.84,2.07-8.51V68.88c0-.69-.23-1.15-1.61-1.15h-1.84c-16.79,0-23.46,27.83-23.46,49v6c0,1.38-.68,1.84-1.38,1.84-.92,0-1.38-.46-1.38-1.84V66.81c0-1.38.7-1.61,1.62-1.61h79.8c.92,0,1.61.23,1.61,1.61V122.7c0,1.38-.69,1.84-1.38,1.84-.92,0-1.61-.46-1.61-1.84v-6c0-21.16-6.44-49-23.46-49h-1.61c-1.38,0-1.84.46-1.84,1.15V216.54c0,6.67.46,8.51,2.3,8.51h4.83c1.61,0,2.07.69,2.07,1.38S506.16,227.58,504.55,227.58Z" transform="translate(0)"/></g></g><g id="I-2" class="cls-2"><g class="cls-2"><path class="cls-3" d="M575.25,227.58H537.53c-1.38,0-1.84-.46-1.84-1.15s.46-1.38,1.84-1.38h5.06c1.84,0,2.07-1.84,2.07-8.51V76.24c0-6.67-.23-8.51-2.07-8.51h-5.06c-1.38,0-1.84-.69-1.84-1.38s.46-1.15,1.84-1.15h37.72c1.38,0,1.84.46,1.84,1.15s-.46,1.38-1.84,1.38h-4.83c-2.07,0-2.3,1.84-2.3,8.51v140.3c0,6.67.23,8.51,2.3,8.51h4.83c1.38,0,1.84.69,1.84,1.38S576.63,227.58,575.25,227.58Z" transform="translate(0)"/></g></g><path class="cls-3" d="M625.48,230.34c-27.83,0-41.63-40-41.63-83.72,0-44.16,13.34-84.18,41.63-84.18,28.06,0,41.86,40,41.86,83.72C667.34,190.32,653.77,230.34,625.48,230.34Zm13.57-122.82c-1.15-30.59-4.14-42.78-13.57-42.78s-12.42,12.19-13.57,42.78c-.92,23.69-.92,53.82,0,77.74,1.38,30.36,4.14,42.78,13.57,42.78s12.42-12.65,13.57-42.78C640,161.34,640,131.44,639.05,107.52Z" transform="translate(0)"/><path class="cls-3" d="M751.06,67.73h-.46c-4.6,0-7.13,8-7.13,52V227.35c0,1.15-.46,2.07-2.3,2.07H728.06c-1.61,0-2.3-.69-2.76-2.3L684.36,77.85h-.46v93.61c0,42.55,5.29,53.59,13.34,53.59H700c1.15,0,1.61.69,1.61,1.38s-.46,1.15-1.61,1.15H673.55c-1.38,0-1.84-.46-1.84-1.15s.46-1.38,1.84-1.38H674c4.37,0,7.13-8.05,7.13-52V76.24c0-6.9-.46-8.51-2.3-8.51h-5.06c-1.38,0-1.84-.69-1.84-1.38s.46-1.15,1.84-1.15h29.44a2.42,2.42,0,0,1,2.3,1.38L740,197.22h.46v-75.9c0-41.63-5.29-53.59-13.11-53.59h-2.76c-1.38,0-1.61-.69-1.61-1.38s.46-1.15,1.61-1.15h26.45c1.38,0,1.84.46,1.84,1.15S752.44,67.73,751.06,67.73Z" transform="translate(0)"/><path class="cls-4" d="M97.67,20c0-11.72,4.06-20,13.17-20,7,0,9.28,5.57,10.55,10l-7,2.55c-.64-3-1.51-4.76-3.59-4.76-3.14,0-4.18,4.93-4.18,12.24s1,12.24,4.18,12.24c2.26,0,3.24-2.38,3.65-5.51l7,2.49C120.35,33.81,118,40,110.84,40,101.73,40,97.67,31.67,97.67,20Z" transform="translate(0)"/><path class="cls-4" d="M139.26,39.32l-1-6.26h-7.66l-1,6.26H121.1L129.4.64h10.09l8.29,38.68Zm-4.82-31-2.84,17h5.68Z" transform="translate(0)"/><path class="cls-4" d="M165.18,39.32l-7.25-21.17V39.32h-8.58V.64h8.76l6.67,20.12V.64h8.58V39.32Z" transform="translate(0)"/><path class="cls-4" d="M193.08,39.32l-1-6.26h-7.65l-1,6.26h-8.52L183.22.64h10.09l8.3,38.68Zm-4.81-31-2.85,17h5.69Z" transform="translate(0)"/><path class="cls-4" d="M203.17,39.32V.64H214c9.92,0,14.09,8.47,14.09,19.37s-4.11,19.31-14,19.31Zm8.76-7.65h2c3.31,0,5.1-3.89,5.1-11.66,0-8.18-1.85-11.72-5.1-11.72h-2Z" transform="translate(0)"/><g id="A-2" class="cls-2"><g class="cls-2"><path class="cls-4" d="M248.27,38.32l-1-6.15h-7.52l-1,6.15h-8.38l8.15-38h9.92l8.15,38ZM243.54,7.88l-2.79,16.76h5.58Z" transform="translate(0)"/></g></g><path class="cls-4" d="M283.15,39.32l-1-6.26h-7.65l-1,6.26H265L273.29.64h10.09l8.29,38.68Zm-4.82-31-2.84,17h5.69Z" transform="translate(0)"/><path class="cls-4" d="M309.07,39.32l-7.25-21.17V39.32h-8.58V.64H302l6.67,20.12V.64h8.58V39.32Z" transform="translate(0)"/><path class="cls-4" d="M321.72,39.32V.64H332.5c9.92,0,14.1,8.47,14.1,19.37s-4.12,19.31-14,19.31Zm8.76-7.65h2c3.31,0,5.11-3.89,5.11-11.66,0-8.18-1.86-11.72-5.11-11.72h-2Z" transform="translate(0)"/><g id="_T" data-name=" T" class="cls-2"><g class="cls-2"><path class="cls-4" d="M364.05,38.32V7.82h-5.64V.3H378.3V7.82h-5.59v30.5Z" transform="translate(0)"/></g></g><path class="cls-4" d="M396.84,39.32V23.26h-6.49V39.32h-8.76V.64h8.76v15h6.49V.64h8.76V39.32Z" transform="translate(0)"/><path class="cls-4" d="M410.07,39.32V.64h18.21V8.29h-9.46v7.54h9.05v7.66h-9.05v8.18h9.46v7.65Z" transform="translate(0)"/><path class="cls-4" d="M453.27,0c5.8,0,9.22,4.52,10.55,10l-7,2.55c-.52-2.61-1.39-4.76-3.59-4.76-2.44,0-4.18,3.13-4.18,12.24s1.74,12.24,4.18,12.24a3.51,3.51,0,0,0,3.13-1.45V25.35h-3.95V17.69h11.66v17c-2.78,3.31-6,5.34-10.84,5.34-9,0-13.17-8.18-13.17-20S444.28,0,453.27,0Z" transform="translate(0)"/><path class="cls-4" d="M482.32,39.32l-3.77-13.57H476.7V39.32h-8.76V.64h12.12c6.56,0,11.31,5.16,11.31,12.24,0,6.49-2.72,9.45-4.81,10.78l5.16,15.66Zm-3.71-31H476.7V18.1h1.91c2.38,0,3.83-1.92,3.83-4.88S481,8.29,478.61,8.29Z" transform="translate(0)"/><g id="E" class="cls-2"><g class="cls-2"><path class="cls-4" d="M495.87,39.32V.64h18.22V8.29h-9.46v7.54h9v7.66h-9v8.18h9.46v7.65Z" transform="translate(0)"/></g></g><g class="cls-2"><path class="cls-4" d="M533.59,38.32l-1-6.15h-7.53l-1,6.15h-8.37L523.9.3h9.92l8.15,38ZM528.86,7.88l-2.8,16.76h5.59Z" transform="translate(0)"/></g><g class="cls-2"><path class="cls-4" d="M546.44,39.32v-31H540.7V.64h20.24V8.29h-5.69v31Z" transform="translate(0)"/></g><g class="cls-2"><path class="cls-4" d="M591.76,39.32,589,16.82l-2.79,22.5h-8.75L570.59.64h8.88l2.72,23.43L585.61.64h6.73l3.48,23.43L598.49.64h8.93l-6.9,38.68Z" transform="translate(0)"/></g><path class="cls-4" d="M624.48,39.32l-1-6.26h-7.66l-1,6.26h-8.53L614.62.64h10.09L633,39.32Zm-4.82-31-2.84,17h5.68Z" transform="translate(0)"/><path class="cls-4" d="M649,39.32l-3.77-13.57h-1.85V39.32h-8.76V.64h12.12C653.24.64,658,5.8,658,12.88c0,6.49-2.73,9.45-4.81,10.78l5.16,15.66Zm-3.71-31h-1.91V18.1h1.91c2.38,0,3.83-1.92,3.83-4.88S647.62,8.29,645.24,8.29Z" transform="translate(0)"/><g id="Group_6" data-name="Group 6"><g class="cls-5"><g id="Group_5" data-name="Group 5"><g id="Group_3" data-name="Group 3"><g id="Path_1" data-name="Path 1"><path class="cls-4" d="M4,26.22A4,4,0,0,1,0,22.27H0a4,4,0,1,1,4,3.95H4" transform="translate(0)"/></g></g><g id="Group_4" data-name="Group 4"><g id="Path_2" data-name="Path 2"><rect class="cls-6" x="7.91" y="22.02" width="72.64" height="0.5"/></g></g></g></g></g><g id="Group_7" data-name="Group 7"><g class="cls-7"><g id="Group_5-2" data-name="Group 5-2"><g id="Group_3-2" data-name="Group 3-2"><g id="Path_1-2" data-name="Path 1-2"><path class="cls-4" d="M752.74,18.31a4,4,0,1,1-4,4,4,4,0,0,1,4-4h0" transform="translate(0)"/></g></g><g id="Group_4-2" data-name="Group 4-2"><g id="Path_2-2" data-name="Path 2-2"><rect class="cls-6" x="676.14" y="22.02" width="72.64" height="0.5"/></g></g></g></g></g></g></g></svg>